<?xml version="1.0" standalone="no"?>
<!DOCTYPE svg PUBLIC "-//W3C//DTD SVG 20010904//EN"
 "http://www.w3.org/TR/2001/REC-SVG-20010904/DTD/svg10.dtd">
<svg version="1.0" xmlns="http://www.w3.org/2000/svg"
 width="200.000000pt" height="200.000000pt" viewBox="0 0 200.000000 200.000000"
 preserveAspectRatio="xMidYMid meet">

<g transform="translate(0.000000,200.000000) scale(0.100000,-0.100000)"
fill="#000000" stroke="none">
<path d="M145 1947 c-83 -46 -106 -158 -48 -228 49 -58 130 -76 194 -44 16 9
35 13 42 9 11 -7 251 -188 270 -204 4 -4 5 -14 1 -23 -5 -15 -23 -17 -118 -17
l-111 0 -20 37 c-70 131 -265 99 -290 -47 -8 -48 24 -122 66 -153 41 -29 108
-33 155 -9 l38 20 46 -36 c25 -20 49 -39 53 -43 5 -4 -16 -26 -46 -49 -55 -41
-56 -41 -81 -25 -38 25 -115 24 -159 -3 -38 -24 -77 -91 -77 -132 0 -41 39
-108 77 -132 44 -27 121 -28 159 -3 25 16 26 16 81 -25 30 -23 51 -45 46 -49
-4 -4 -28 -23 -53 -43 l-46 -36 -38 20 c-47 24 -114 20 -155 -9 -14 -10 -37
-40 -49 -66 -30 -58 -23 -113 19 -162 38 -43 79 -59 135 -52 55 6 92 31 119
80 l20 37 111 0 c95 0 113 -2 118 -17 4 -9 3 -19 -1 -23 -19 -16 -259 -197
-270 -204 -7 -4 -26 0 -42 9 -38 19 -103 19 -140 0 -114 -59 -115 -215 -1
-273 55 -27 82 -28 136 -1 63 30 87 75 82 149 l-4 60 139 106 140 106 34 -16
c78 -37 167 -9 208 67 l20 37 76 0 76 0 5 -52 c7 -63 40 -98 94 -98 38 0 94
44 94 74 0 10 9 16 22 16 16 0 78 -55 209 -186 181 -181 188 -186 234 -191 27
-4 49 -12 52 -20 9 -23 62 -45 92 -38 84 18 104 132 30 170 -44 23 -77 18
-111 -15 -55 -55 -63 -50 -268 155 -174 174 -187 185 -222 185 l-38 0 0 50 0
50 67 0 67 0 126 -125 127 -125 55 0 c46 0 58 -4 76 -25 43 -49 94 -54 139
-13 30 28 38 70 19 107 -31 60 -99 70 -148 21 -23 -24 -38 -30 -71 -30 -41 0
-47 5 -167 125 l-125 125 -82 0 -83 0 0 45 0 45 138 0 138 0 59 -60 c58 -58
61 -60 113 -60 47 0 56 -4 79 -30 67 -80 197 6 149 99 -31 60 -99 70 -148 21
-23 -24 -38 -30 -72 -30 -38 0 -47 6 -101 60 l-59 60 -148 0 -148 0 0 50 0 50
249 0 249 0 30 -30 c39 -38 88 -41 129 -6 39 34 39 98 0 132 -42 36 -98 33
-130 -6 l-26 -30 -250 0 -251 0 0 45 0 45 141 0 141 0 67 65 c61 58 72 65 109
65 32 0 47 -6 70 -30 49 -49 117 -39 148 21 32 62 -11 129 -82 129 -35 0 -47
-5 -67 -30 -23 -26 -32 -30 -79 -30 -52 0 -55 -2 -113 -60 l-59 -60 -138 0
-138 0 0 45 0 45 83 0 82 0 125 125 c120 120 126 125 167 125 33 0 48 -6 71
-30 49 -49 117 -39 148 21 25 50 0 109 -55 130 -32 13 -85 -6 -105 -37 -14
-21 -24 -24 -73 -24 l-56 0 -127 -125 -126 -125 -67 0 -67 0 0 50 0 50 38 0
c35 0 48 11 222 185 205 205 213 210 268 155 88 -87 213 36 130 127 -40 43
-110 37 -143 -13 -12 -19 -24 -24 -58 -24 -41 0 -45 -3 -227 -185 -194 -194
-230 -219 -230 -156 0 17 -11 42 -26 60 -21 26 -33 31 -68 31 -63 0 -89 -32
-94 -115 l-4 -65 -77 0 -76 0 -20 37 c-41 76 -130 104 -208 67 l-34 -16 -140
106 -139 106 4 60 c5 74 -19 119 -82 149 -54 27 -91 26 -141 -2z m110 -51 c63
-26 75 -97 26 -147 -58 -58 -150 -22 -151 59 0 45 16 71 53 87 40 18 32 17 72
1z m1615 -50 c0 -28 -28 -42 -47 -23 -19 19 -5 47 23 47 19 0 24 -5 24 -24z
m-2 -284 c4 -28 -24 -41 -44 -20 -20 20 -7 50 20 46 13 -2 22 -12 24 -26z
m-684 -18 c3 -9 6 -249 6 -534 0 -446 -2 -519 -15 -530 -8 -7 -22 -10 -30 -6
-13 5 -15 72 -15 539 0 294 3 537 7 540 12 13 41 7 47 -9z m-903 -73 c48 -48
37 -116 -22 -147 -62 -32 -129 11 -129 82 0 35 5 47 31 68 41 35 83 34 120 -3z
m528 3 c25 -21 31 -34 31 -64 0 -58 -35 -95 -90 -95 -55 0 -90 37 -90 95 0 30
6 43 31 64 17 15 43 26 59 26 16 0 42 -11 59 -26z m-205 -120 c4 -9 5 -18 4
-19 -2 -1 -30 -22 -64 -47 l-60 -46 -45 35 c-24 19 -52 41 -62 48 -10 7 -15
19 -11 29 9 24 229 24 238 0z m456 -154 l0 -170 -77 0 -78 1 -17 37 c-25 53
-76 84 -138 84 -30 0 -60 -6 -76 -17 -25 -16 -26 -16 -80 25 -30 22 -54 42
-54 44 0 2 24 22 53 44 l53 40 39 -20 c73 -38 174 -2 205 71 12 31 13 31 91
31 l79 0 0 -170z m808 82 c4 -28 -24 -41 -44 -20 -20 20 -7 50 20 46 13 -2 22
-12 24 -26z m-1318 -168 c44 -34 57 -50 53 -65 -5 -17 -15 -19 -118 -19 -96 0
-114 2 -119 17 -4 9 -1 22 6 29 25 24 103 83 111 83 5 1 35 -20 67 -45z m-266
-50 c58 -58 17 -154 -66 -154 -54 0 -88 35 -88 90 0 84 95 123 154 64z m531 1
c35 -34 35 -96 0 -130 -34 -35 -96 -35 -130 0 -35 34 -35 96 0 130 18 19 35
25 65 25 30 0 47 -6 65 -25z m1053 -63 c4 -28 -24 -40 -45 -19 -14 13 -14 19
-3 32 18 22 44 15 48 -13z m-1265 -51 c4 -15 -9 -31 -53 -65 -32 -25 -61 -46
-65 -46 -7 0 -125 89 -125 95 0 2 3 10 6 19 5 13 25 16 119 16 103 0 113 -2
118 -19z m457 -156 l0 -175 -75 0 -75 0 -20 39 c-40 79 -131 112 -205 73 l-39
-20 -53 40 c-29 22 -53 42 -53 44 0 2 24 22 54 44 54 41 55 41 80 25 16 -11
46 -17 76 -17 62 0 113 31 138 84 l17 37 78 1 77 0 0 -175z m-452 -131 c2 -1
-1 -12 -8 -23 -10 -19 -20 -21 -115 -21 -96 0 -105 2 -116 21 -9 17 -7 23 8
34 10 7 38 29 62 48 l45 35 60 -46 c34 -25 62 -47 64 -48z m1257 56 c0 -18 -6
-26 -21 -28 -26 -4 -40 24 -23 45 18 21 44 11 44 -17z m-1605 -45 c59 -30 68
-98 21 -146 -37 -37 -79 -38 -120 -3 -64 53 -27 158 57 163 7 1 26 -6 42 -14z
m558 -21 c48 -55 6 -154 -66 -154 -47 0 -92 43 -92 89 0 90 99 132 158 65z
m1047 -214 c0 -18 -6 -26 -21 -28 -26 -4 -40 24 -23 45 18 21 44 11 44 -17z
m-1584 -189 c49 -50 37 -121 -27 -147 -29 -12 -39 -12 -68 0 -40 17 -56 42
-56 88 1 81 93 117 151 59z m1573 -67 c9 -3 16 -17 16 -30 0 -19 -5 -24 -24
-24 -28 0 -42 26 -25 46 13 16 12 16 33 8z"/>
<path d="M940 1250 c0 -27 3 -30 30 -30 27 0 30 3 30 30 0 27 -3 30 -30 30
-27 0 -30 -3 -30 -30z"/>
<path d="M940 1125 c0 -32 2 -35 30 -35 28 0 30 3 30 35 0 32 -2 35 -30 35
-28 0 -30 -3 -30 -35z"/>
<path d="M940 875 c0 -32 2 -35 30 -35 28 0 30 3 30 35 0 32 -2 35 -30 35 -28
0 -30 -3 -30 -35z"/>
<path d="M940 750 c0 -27 3 -30 30 -30 27 0 30 3 30 30 0 27 -3 30 -30 30 -27
0 -30 -3 -30 -30z"/>
</g>
</svg>
