<?xml version="1.0" standalone="no"?>
<!DOCTYPE svg PUBLIC "-//W3C//DTD SVG 20010904//EN"
 "http://www.w3.org/TR/2001/REC-SVG-20010904/DTD/svg10.dtd">
<svg version="1.0" xmlns="http://www.w3.org/2000/svg"
 width="512.000000pt" height="512.000000pt" viewBox="0 0 512.000000 512.000000"
 preserveAspectRatio="xMidYMid meet">

<g transform="translate(0.000000,512.000000) scale(0.100000,-0.100000)"
fill="#000000" stroke="none">
<path d="M2242 4909 c-92 -46 -125 -93 -175 -246 -41 -124 -43 -129 -80 -147
-38 -18 -39 -18 -150 8 -149 35 -214 34 -292 -2 -33 -16 -75 -45 -92 -65 -44
-50 -240 -381 -253 -426 -16 -56 -12 -115 11 -177 17 -44 42 -79 115 -155 127
-132 127 -137 5 -263 -103 -106 -132 -157 -138 -241 -7 -80 11 -123 132 -324
114 -190 136 -217 205 -255 79 -43 151 -45 301 -10 l121 28 37 -20 c34 -18 39
-27 76 -140 47 -142 75 -189 141 -233 74 -49 102 -53 377 -49 l252 3 55 31
c80 45 118 101 165 246 38 115 42 124 76 142 l37 20 121 -28 c150 -35 222 -33
301 10 70 38 93 67 213 269 112 186 134 243 124 325 -9 73 -41 125 -138 226
-121 126 -121 132 1 259 54 56 99 113 111 140 26 59 34 138 20 191 -13 48
-207 378 -254 431 -17 20 -59 49 -92 65 -78 36 -143 37 -292 2 -111 -26 -112
-26 -150 -8 -37 18 -39 23 -80 147 -50 153 -83 200 -175 246 l-61 31 -257 0
-257 0 -61 -31z m569 -193 c15 -15 37 -67 61 -143 43 -139 84 -195 171 -238
81 -39 134 -41 260 -11 117 28 167 32 197 16 24 -13 230 -356 230 -382 0 -34
-27 -71 -105 -148 -98 -95 -125 -149 -125 -245 0 -96 27 -150 125 -245 78 -77
105 -114 105 -148 0 -25 -195 -352 -223 -374 -30 -24 -67 -22 -194 8 -170 41
-271 19 -358 -79 -39 -42 -50 -66 -81 -166 -27 -88 -43 -123 -65 -143 l-29
-28 -219 0 c-271 0 -262 -4 -306 147 -44 154 -92 221 -188 263 -77 34 -137 35
-260 6 -127 -30 -164 -32 -194 -8 -28 22 -223 349 -223 374 0 34 27 71 105
148 98 95 125 149 125 245 0 96 -27 150 -125 245 -78 77 -105 114 -105 148 0
26 206 369 230 382 30 16 80 12 196 -16 125 -30 179 -28 261 12 87 42 128 99
171 237 55 177 36 167 312 167 226 0 227 0 251 -24z"/>
<path d="M2355 4291 c-47 -20 -60 -49 -63 -141 l-4 -88 -80 -4 c-75 -3 -81 -5
-109 -36 -27 -30 -29 -38 -29 -112 l0 -80 -91 0 c-87 0 -92 -1 -120 -29 -39
-40 -40 -89 0 -133 27 -30 32 -32 120 -36 l91 -4 0 -63 0 -63 -91 -4 c-88 -3
-92 -4 -120 -36 -40 -44 -40 -93 0 -133 28 -28 33 -29 120 -29 l91 0 0 -80 c0
-73 2 -82 28 -111 27 -30 34 -32 110 -37 l82 -5 0 -76 c0 -121 48 -176 131
-152 55 17 69 46 69 146 l0 85 70 0 70 0 0 -85 c0 -79 2 -87 29 -117 24 -27
36 -33 71 -33 35 0 47 6 71 33 27 30 29 38 29 116 l0 83 78 5 c77 5 115 19
129 48 4 8 9 51 12 95 l6 80 92 5 c79 4 95 8 117 29 19 18 26 35 26 63 0 80
-43 108 -165 108 l-75 0 0 65 0 65 64 0 c35 0 77 3 95 6 79 16 110 113 53 167
-25 24 -36 26 -117 29 l-90 3 -3 75 c-1 41 -8 86 -15 99 -17 34 -65 51 -142
51 l-65 0 0 86 c0 85 0 86 -35 121 -32 32 -40 35 -73 30 -24 -4 -47 -17 -64
-37 -26 -28 -28 -37 -28 -115 l0 -85 -70 0 -70 0 0 88 c0 67 -4 92 -18 108
-32 40 -74 52 -117 35z m495 -726 l0 -295 -290 0 -290 0 0 295 0 295 290 0
290 0 0 -295z"/>
<path d="M513 3663 c-12 -2 -33 -16 -47 -30 l-26 -26 -2 -728 -3 -727 -63 54
c-67 57 -93 65 -141 40 -47 -25 -63 -84 -37 -134 14 -26 140 -153 253 -255 91
-82 117 -71 321 135 112 114 122 128 122 162 0 45 -22 80 -60 96 -44 18 -79 5
-137 -53 l-53 -51 0 662 0 662 168 0 c187 0 202 4 222 65 16 50 -11 105 -60
122 -33 11 -404 16 -457 6z"/>
<path d="M4153 3663 c-12 -2 -34 -18 -48 -34 -33 -40 -33 -88 -1 -126 l24 -28
174 -5 173 -5 3 -660 2 -659 -47 46 c-79 76 -120 86 -171 43 -40 -34 -49 -76
-25 -118 10 -17 82 -94 159 -170 138 -133 142 -137 185 -137 43 0 46 3 196
153 148 148 153 154 153 194 0 62 -34 98 -94 98 -42 0 -50 -5 -101 -55 l-55
-54 0 719 c0 695 -1 721 -20 752 -13 21 -31 35 -57 42 -36 10 -402 13 -450 4z"/>
<path d="M183 1560 c-70 -35 -125 -91 -157 -159 -20 -44 -21 -60 -21 -366 l0
-320 26 -55 c55 -115 156 -180 291 -188 l78 -5 0 -115 c0 -112 1 -117 27 -144
21 -22 36 -28 68 -28 40 0 51 8 208 145 l166 144 533 3 533 3 52 24 c66 29
143 111 169 176 17 46 19 78 19 365 0 309 0 316 -23 361 -34 68 -83 121 -143
154 l-54 30 -855 3 -856 2 -61 -30z m1736 -185 c56 -28 61 -56 61 -345 0 -289
-3 -304 -63 -340 -31 -19 -54 -20 -572 -20 -490 0 -543 -2 -565 -17 -14 -9
-59 -47 -101 -85 l-76 -68 -6 51 c-7 60 -28 96 -63 109 -14 6 -72 10 -130 10
-119 0 -153 12 -184 63 -18 30 -20 52 -20 293 0 287 4 315 54 345 30 18 62 19
834 19 683 0 807 -2 831 -15z"/>
<path d="M3157 1576 c-58 -21 -114 -62 -148 -109 -65 -89 -64 -82 -64 -427 0
-287 2 -319 19 -365 26 -65 103 -147 169 -176 l52 -24 508 -3 507 -3 0 -100
c0 -145 24 -189 102 -189 43 0 59 12 222 160 l137 125 107 5 c86 5 118 11 163
32 69 32 124 87 158 158 l26 55 0 320 c0 306 -1 322 -21 366 -31 67 -87 124
-156 159 l-61 30 -218 0 -217 0 -26 -31 c-36 -42 -35 -89 3 -131 l29 -33 199
-5 c138 -3 205 -9 221 -18 47 -27 52 -61 52 -345 0 -258 0 -265 -23 -298 -34
-51 -59 -59 -180 -59 -62 0 -118 -5 -130 -11 -12 -7 -56 -43 -98 -80 -42 -38
-79 -69 -83 -69 -3 0 -6 21 -6 46 0 56 -12 79 -50 99 -25 13 -107 15 -570 15
-597 0 -581 -2 -620 63 -18 30 -20 52 -20 295 0 376 -11 362 277 363 220 0
250 7 276 61 16 32 17 43 7 73 -21 63 -29 65 -280 65 -163 -1 -235 -5 -263
-14z"/>
<path d="M3976 1559 c-17 -19 -26 -43 -26 -64 0 -21 9 -45 26 -64 21 -25 33
-31 66 -31 53 0 77 14 94 57 12 27 13 42 4 69 -15 44 -45 64 -96 64 -35 0 -47
-5 -68 -31z"/>
</g>
</svg>
